<svg width="1400" height="520" viewBox="0 0 1400 520" fill="none" xmlns="http://www.w3.org/2000/svg" role="img" aria-labelledby="title desc">
  <title id="title">CoordBench README hero</title>
  <desc id="desc">Bilingual prompts flowing through an LLM into human-alignment and cross-lingual stability diagnostics.</desc>
  <defs>
    <linearGradient id="bg" x1="0" y1="0" x2="1400" y2="520" gradientUnits="userSpaceOnUse">
      <stop offset="0" stop-color="#F8FBFF"/>
      <stop offset="0.48" stop-color="#EEF7F3"/>
      <stop offset="1" stop-color="#FFF7EF"/>
    </linearGradient>
    <linearGradient id="blue" x1="0" y1="0" x2="1" y2="1">
      <stop stop-color="#4F7DCB"/>
      <stop offset="1" stop-color="#7EB6E8"/>
    </linearGradient>
    <linearGradient id="green" x1="0" y1="0" x2="1" y2="1">
      <stop stop-color="#3EA66B"/>
      <stop offset="1" stop-color="#8BD5A4"/>
    </linearGradient>
    <linearGradient id="orange" x1="0" y1="0" x2="1" y2="1">
      <stop stop-color="#D77A45"/>
      <stop offset="1" stop-color="#F4BB77"/>
    </linearGradient>
    <filter id="shadow" x="-20%" y="-20%" width="140%" height="140%">
      <feDropShadow dx="0" dy="10" stdDeviation="16" flood-color="#203049" flood-opacity="0.14"/>
    </filter>
    <pattern id="grid" width="42" height="42" patternUnits="userSpaceOnUse">
      <path d="M 42 0 L 0 0 0 42" stroke="#8DA0B8" stroke-opacity="0.12" stroke-width="1"/>
    </pattern>
  </defs>

  <rect width="1400" height="520" rx="28" fill="url(#bg)"/>
  <rect width="1400" height="520" rx="28" fill="url(#grid)"/>

  <g opacity="0.34" stroke="#7B8CA4" stroke-width="1.4">
    <path d="M70 90L130 58L205 92L248 52M130 58L152 145L230 158L205 92M152 145L92 205"/>
    <circle cx="70" cy="90" r="5" fill="#7B8CA4"/>
    <circle cx="130" cy="58" r="5" fill="#7B8CA4"/>
    <circle cx="205" cy="92" r="5" fill="#7B8CA4"/>
    <circle cx="248" cy="52" r="5" fill="#7B8CA4"/>
    <circle cx="152" cy="145" r="5" fill="#7B8CA4"/>
    <circle cx="230" cy="158" r="5" fill="#7B8CA4"/>
    <circle cx="92" cy="205" r="5" fill="#7B8CA4"/>
    <path d="M1150 78L1215 48L1286 98L1340 70M1215 48L1234 142L1322 158L1286 98M1234 142L1168 206"/>
    <circle cx="1150" cy="78" r="5" fill="#7B8CA4"/>
    <circle cx="1215" cy="48" r="5" fill="#7B8CA4"/>
    <circle cx="1286" cy="98" r="5" fill="#7B8CA4"/>
    <circle cx="1340" cy="70" r="5" fill="#7B8CA4"/>
    <circle cx="1234" cy="142" r="5" fill="#7B8CA4"/>
    <circle cx="1322" cy="158" r="5" fill="#7B8CA4"/>
    <circle cx="1168" cy="206" r="5" fill="#7B8CA4"/>
  </g>

  <text x="700" y="82" text-anchor="middle" font-family="Inter, Segoe UI, Arial, sans-serif" font-size="58" font-weight="800" fill="#182235">CoordBench</text>
  <text x="700" y="125" text-anchor="middle" font-family="Inter, Segoe UI, Arial, sans-serif" font-size="25" font-weight="500" fill="#43546D">Human-referenced cross-lingual coordination diagnostics</text>

  <g filter="url(#shadow)">
    <rect x="124" y="174" width="260" height="78" rx="18" fill="white"/>
    <rect x="124" y="174" width="260" height="78" rx="18" stroke="#BFD2EA" stroke-width="2"/>
    <text x="254" y="207" text-anchor="middle" font-family="Inter, Segoe UI, Arial, sans-serif" font-size="22" font-weight="700" fill="#24456C">English prompt</text>
    <text x="254" y="233" text-anchor="middle" font-family="Inter, Segoe UI, Arial, sans-serif" font-size="18" fill="#60728B">fixed English answer</text>

    <rect x="1016" y="174" width="260" height="78" rx="18" fill="white"/>
    <rect x="1016" y="174" width="260" height="78" rx="18" stroke="#D5C8EF" stroke-width="2"/>
    <text x="1146" y="207" text-anchor="middle" font-family="Inter, Segoe UI, Arial, sans-serif" font-size="22" font-weight="700" fill="#4C3F79">Chinese prompt</text>
    <text x="1146" y="233" text-anchor="middle" font-family="Inter, Segoe UI, Arial, sans-serif" font-size="18" fill="#60728B">fixed English answer</text>

    <rect x="518" y="165" width="364" height="95" rx="24" fill="#F8FAFD"/>
    <rect x="518" y="165" width="364" height="95" rx="24" stroke="#AEBBD0" stroke-width="2"/>
    <circle cx="584" cy="213" r="28" fill="url(#blue)" opacity="0.92"/>
    <path d="M575 214C575 204 584 198 593 202C602 206 604 218 596 224C589 229 579 225 575 214Z" stroke="white" stroke-width="4" fill="none"/>
    <text x="705" y="205" text-anchor="middle" font-family="Inter, Segoe UI, Arial, sans-serif" font-size="24" font-weight="800" fill="#1C293B">Large Language Model</text>
    <text x="705" y="233" text-anchor="middle" font-family="Inter, Segoe UI, Arial, sans-serif" font-size="17" fill="#60728B">sample, normalize, compare distributions</text>
  </g>

  <g stroke="#718198" stroke-width="3" stroke-linecap="round" stroke-linejoin="round" opacity="0.85">
    <path d="M384 213H498"/>
    <path d="M1016 213H902"/>
    <path d="M700 260V312"/>
    <path d="M700 312H430V356"/>
    <path d="M700 312H700V356"/>
    <path d="M700 312H970V356"/>
  </g>

  <g filter="url(#shadow)">
    <rect x="240" y="356" width="310" height="110" rx="22" fill="white"/>
    <rect x="240" y="356" width="310" height="110" rx="22" stroke="#BFD2EA" stroke-width="2"/>
    <rect x="268" y="391" width="18" height="48" rx="5" fill="#4F7DCB"/>
    <rect x="296" y="373" width="18" height="66" rx="5" fill="#7EB6E8"/>
    <rect x="324" y="407" width="18" height="32" rx="5" fill="#B8D5F2"/>
    <text x="430" y="396" text-anchor="middle" font-family="Inter, Segoe UI, Arial, sans-serif" font-size="22" font-weight="800" fill="#203049">Human alignment</text>
    <text x="430" y="426" text-anchor="middle" font-family="Inter, Segoe UI, Arial, sans-serif" font-size="17" fill="#60728B">model vs human focal points</text>

    <rect x="545" y="356" width="310" height="110" rx="22" fill="white"/>
    <rect x="545" y="356" width="310" height="110" rx="22" stroke="#B7DFC6" stroke-width="2"/>
    <circle cx="600" cy="412" r="28" fill="url(#green)"/>
    <text x="600" y="420" text-anchor="middle" font-family="Inter, Segoe UI, Arial, sans-serif" font-size="22" font-weight="800" fill="white">JSD</text>
    <text x="700" y="396" text-anchor="middle" font-family="Inter, Segoe UI, Arial, sans-serif" font-size="22" font-weight="800" fill="#203049">Cross-lingual stability</text>
    <text x="700" y="426" text-anchor="middle" font-family="Inter, Segoe UI, Arial, sans-serif" font-size="17" fill="#60728B">English prompt vs Chinese prompt</text>

    <rect x="850" y="356" width="310" height="110" rx="22" fill="white"/>
    <rect x="850" y="356" width="310" height="110" rx="22" stroke="#F0CAA5" stroke-width="2"/>
    <path d="M900 424C900 389 940 375 962 402C980 423 960 450 930 446C914 444 900 439 900 424Z" fill="url(#orange)"/>
    <path d="M937 386V371M912 400L898 389M966 400L982 390" stroke="#D77A45" stroke-width="5" stroke-linecap="round"/>
    <text x="1010" y="396" text-anchor="middle" font-family="Inter, Segoe UI, Arial, sans-serif" font-size="22" font-weight="800" fill="#203049">Round 2 retry</text>
    <text x="1010" y="426" text-anchor="middle" font-family="Inter, Segoe UI, Arial, sans-serif" font-size="17" fill="#60728B">repair flagged top-1 mismatches</text>
  </g>
</svg>
